<svg width="153" height="44" viewBox="0 0 153 44" fill="none" xmlns="http://www.w3.org/2000/svg">
<path d="M7.91554 32.8234C7.55235 32.8234 7.26393 32.7272 7.05028 32.535C6.83664 32.3427 6.68708 32.1183 6.60163 31.862L0.0640934 11.3522C0.0213645 11.2454 0 11.1492 0 11.0638C0 10.8928 0.0640934 10.7433 0.19228 10.6151C0.341832 10.4656 0.512748 10.3908 0.705028 10.3908H4.67882C5.02065 10.3908 5.28771 10.4869 5.47999 10.6792C5.67227 10.8715 5.78978 11.0531 5.8325 11.224L10.3511 26.0295L14.9017 11.224C14.9658 11.0531 15.0833 10.8715 15.2542 10.6792C15.4465 10.4869 15.7136 10.3908 16.0554 10.3908H20.0292C20.2215 10.3908 20.3817 10.4656 20.5099 10.6151C20.6595 10.7433 20.7342 10.8928 20.7342 11.0638C20.7342 11.1492 20.7129 11.2454 20.6701 11.3522L14.1326 31.862C14.0471 32.1183 13.8976 32.3427 13.684 32.535C13.4917 32.7272 13.2033 32.8234 12.8187 32.8234H7.91554Z" fill="url(#paint0_linear_4065_20732)"/>
<path d="M29.5358 33.1438C27.7412 33.1438 26.2243 32.8554 24.9852 32.2786C23.7674 31.7017 22.8274 30.8792 22.1651 29.811C21.5241 28.7214 21.1609 27.4289 21.0755 25.9334C21.0541 25.5061 21.0434 25.0254 21.0434 24.4913C21.0434 23.9358 21.0541 23.4551 21.0755 23.0492C21.1609 21.5323 21.5455 20.2398 22.2292 19.1715C22.9128 18.1033 23.8635 17.2808 25.0813 16.704C26.3205 16.1271 27.8053 15.8387 29.5358 15.8387C31.2877 15.8387 32.7725 16.1271 33.9903 16.704C35.2295 17.2808 36.1909 18.1033 36.8745 19.1715C37.5582 20.2398 37.9427 21.5323 38.0282 23.0492C38.0496 23.4551 38.0602 23.9358 38.0602 24.4913C38.0602 25.0254 38.0496 25.5061 38.0282 25.9334C37.9427 27.4289 37.5689 28.7214 36.9066 29.811C36.2656 30.8792 35.3256 31.7017 34.0865 32.2786C32.8687 32.8554 31.3518 33.1438 29.5358 33.1438ZM29.5358 29.2342C30.4972 29.2342 31.1916 28.9457 31.6189 28.3689C32.0675 27.7921 32.3239 26.9268 32.388 25.7731C32.4093 25.4527 32.42 25.0254 32.42 24.4913C32.42 23.9572 32.4093 23.5299 32.388 23.2094C32.3239 22.0771 32.0675 21.2225 31.6189 20.6457C31.1916 20.0475 30.4972 19.7484 29.5358 19.7484C28.5958 19.7484 27.9014 20.0475 27.4528 20.6457C27.0041 21.2225 26.7584 22.0771 26.7157 23.2094C26.6943 23.5299 26.6837 23.9572 26.6837 24.4913C26.6837 25.0254 26.6943 25.4527 26.7157 25.7731C26.7584 26.9268 27.0041 27.7921 27.4528 28.3689C27.9014 28.9457 28.5958 29.2342 29.5358 29.2342Z" fill="url(#paint1_linear_4065_20732)"/>
<path d="M49.6739 32.8234C48.3066 32.8234 47.1209 32.6097 46.1167 32.1824C45.134 31.7338 44.3755 31.0501 43.8414 30.1315C43.3073 29.1914 43.0403 27.9843 43.0403 26.5102V20.3573H40.5406C40.3056 20.3573 40.1026 20.2825 39.9317 20.1329C39.7822 19.9834 36.8745 19.4065 36.8745 19.1715C36.8745 19.1715 35.9314 18.0179 39.7074 16.9603C43.4834 15.9028 39.9317 16.3835 39.9317 16.3835C39.9317 16.3835 34.8199 17.1526 40.5406 16.1592C46.2613 15.1657 43.0403 16.1592 43.0403 16.1592V10.8715C43.0403 10.6365 43.115 10.4442 43.2646 10.2946C43.4355 10.1451 43.6278 10.0703 43.8414 10.0703H47.5588C47.7939 10.0703 47.9861 10.1451 48.1357 10.2946C48.2852 10.4442 48.36 10.6365 48.36 10.8715V16.1592H52.3659C52.6009 16.1592 52.7931 16.2339 52.9427 16.3835C53.0922 16.533 53.167 16.7253 53.167 16.9603V19.5561C53.167 19.7911 53.0922 19.9834 52.9427 20.1329C52.7931 20.2825 52.6009 20.3573 52.3659 20.3573H48.36V26.0615C48.36 26.7879 48.4989 27.3648 48.7766 27.7921C49.0544 28.2194 49.5244 28.433 50.1867 28.433H52.6543C52.8893 28.433 53.0816 28.5078 53.2311 28.6573C53.3807 28.8069 59.4417 27.1832 53.4554 29.2342C47.4692 31.2851 53.4554 32.0222 53.4554 32.0222C53.4554 32.2572 53.3807 32.4495 53.2311 32.599C53.0816 32.7486 52.8893 32.8234 52.6543 32.8234H49.6739Z" fill="url(#paint2_linear_4065_20732)"/>
<path d="M63.8 33.1438C61.279 33.1438 67.0367 29.3623 57.7752 31.0929C48.5137 32.8234 55.4999 27.6959 55.4358 25.004C55.4358 24.8545 55.4358 24.6622 55.4358 24.4272C55.4358 24.1922 55.4358 24.0106 55.4358 23.8824C55.4999 22.1946 55.8738 20.7525 56.5575 19.5561C57.2625 18.3383 58.2239 17.4197 59.4417 16.8001C60.6808 16.1592 62.1229 15.8387 63.768 15.8387C65.648 15.8387 67.197 16.2126 68.4148 16.9603C69.6539 17.7081 70.5832 18.7229 71.2028 20.0047C71.8224 21.2866 72.1322 22.7501 72.1322 24.3951V25.1642C72.1322 25.3993 72.0467 25.5915 71.8758 25.7411C71.7262 25.8906 71.5447 25.9654 71.331 25.9654H61.0761C61.0761 25.9868 61.0761 26.0188 61.0761 26.0615C61.0761 26.1043 61.0761 26.147 61.0761 26.1897C61.0974 26.8093 61.2042 27.3755 61.3965 27.8882C61.5888 28.4009 61.8879 28.8069 62.2938 29.106C62.6998 29.4051 63.1911 29.5546 63.768 29.5546C64.1953 29.5546 64.5478 29.4905 64.8255 29.3623C65.1246 29.2128 65.3703 29.0526 65.5626 28.8816C65.7549 28.6894 65.9044 28.5291 66.0113 28.4009C66.2035 28.1873 66.3531 28.0591 66.4599 28.0164C66.5881 27.9523 66.7804 27.9202 67.0367 27.9202H71.0105C71.2242 27.9202 71.3951 27.9843 71.5233 28.1125C71.6728 28.2193 71.7369 28.3796 71.7156 28.5932C71.6942 28.9564 71.5126 29.3944 71.1708 29.9071C70.8289 30.4199 70.3269 30.9326 69.6646 31.4454C69.0236 31.9368 68.2118 32.3427 67.229 32.6631C66.2463 32.9836 65.1033 33.1438 63.8 33.1438ZM61.0761 22.7928H66.492V22.7287C66.492 22.045 66.3851 21.4468 66.1715 20.9341C65.9792 20.4214 65.6694 20.0261 65.2421 19.7484C64.8362 19.4706 64.3448 19.3318 63.768 19.3318C63.1911 19.3318 62.6998 19.4706 62.2938 19.7484C61.9093 20.0261 61.6102 20.4214 61.3965 20.9341C61.1829 21.4468 61.0761 22.045 61.0761 22.7287V22.7928Z" fill="url(#paint3_linear_4065_20732)"/>
<path d="M76.2902 32.8234C76.0552 32.8234 75.8629 32.7486 75.7134 32.599C75.5638 32.4495 75.4891 32.2572 75.4891 32.0222C75.4891 32.0222 68.4148 25.9654 75.4891 21.6071C82.5634 17.2487 75.4891 11.1919 75.4891 11.1919C75.4891 10.9569 75.5638 10.7647 75.7134 10.6151C75.8629 10.4656 76.0552 10.3908 76.2902 10.3908H84.6224C86.7161 10.3908 88.5 10.7326 89.9742 11.4163C91.4483 12.0786 92.5807 13.0613 93.3711 14.3646C94.1616 15.6464 94.5889 17.2381 94.653 19.1395C94.6744 20.0795 94.6851 20.9021 94.6851 21.6071C94.6851 22.3121 94.6744 23.1239 94.653 24.0426C94.5676 26.0295 94.1403 27.6746 93.3711 28.9778C92.6234 30.281 91.5231 31.2531 90.0703 31.894C88.6389 32.5136 86.8763 32.8234 84.7826 32.8234H76.2902ZM81.2254 28.2087H84.6224C85.5411 28.2087 86.2995 28.0698 86.8977 27.7921C87.5173 27.493 87.9766 27.0336 88.2757 26.4141C88.5962 25.7945 88.7671 24.9826 88.7885 23.9785C88.8312 23.359 88.8526 22.8035 88.8526 22.3121C88.8739 21.8207 88.8739 21.3293 88.8526 20.838C88.8526 20.3466 88.8312 19.8018 88.7885 19.2036C88.7457 17.7508 88.3612 16.6933 87.6348 16.031C86.9298 15.3473 85.8722 15.0055 84.4622 15.0055H81.2254V28.2087Z" fill="url(#paint4_linear_4065_20732)"/>
<path d="M105.767 33.1438C103.246 33.1438 101.238 32.4602 99.7427 31.0929C98.2472 29.7255 97.4779 27.5502 97.4033 25.004C97.3967 24.7788 97.9824 28.4009 97.4033 24.4272C96.8241 20.4534 97.4033 23.8824 97.4033 23.8824C97.4033 23.8824 97.8412 20.7525 98.5249 19.5561C99.2299 18.3383 100.191 17.4197 101.409 16.8001C102.648 16.1592 104.09 15.8387 105.735 15.8387C107.615 15.8387 109.164 16.2126 110.382 16.9603C111.621 17.7081 112.551 18.7229 113.17 20.0047C113.79 21.2866 114.1 22.7501 114.1 24.3951V25.1642C114.1 25.3993 114.014 25.5915 113.843 25.7411C113.694 25.8906 113.512 25.9654 113.298 25.9654H103.043C103.043 25.9868 103.043 26.0188 103.043 26.0615C103.043 26.1043 103.043 26.147 103.043 26.1897C103.065 26.8093 103.172 27.3755 103.364 27.8882C103.556 28.4009 103.855 28.8069 104.261 29.106C104.667 29.4051 105.159 29.5546 105.735 29.5546C106.163 29.5546 106.515 29.4905 106.793 29.3623C107.092 29.2128 107.338 29.0526 107.53 28.8816C107.722 28.6894 107.872 28.5291 107.979 28.4009C108.171 28.1873 108.321 28.0591 108.427 28.0164C108.556 27.9523 108.748 27.9202 109.004 27.9202H112.978C113.192 27.9202 113.363 27.9843 113.491 28.1125C113.64 28.2193 113.704 28.3796 113.683 28.5932C113.662 28.9564 113.48 29.3944 113.138 29.9071C112.796 30.4199 112.294 30.9326 111.632 31.4454C110.991 31.9368 110.179 32.3427 109.196 32.6631C108.214 32.9836 107.071 33.1438 105.767 33.1438ZM103.043 22.7928H108.459V22.7287C108.459 22.045 108.353 21.4468 108.139 20.9341C107.947 20.4214 107.637 20.0261 107.21 19.7484C106.804 19.4706 106.312 19.3318 105.735 19.3318C105.159 19.3318 104.667 19.4706 104.261 19.7484C103.877 20.0261 103.578 20.4214 103.364 20.9341C103.15 21.4468 103.043 22.045 103.043 22.7287V22.7928Z" fill="url(#paint5_linear_4065_20732)"/>
<path d="M124.763 33.1438C123.182 33.1438 121.783 32.8554 120.565 32.2786C119.347 31.7017 118.375 30.8685 117.649 29.7789C116.944 28.668 116.559 27.3434 116.495 25.8052C116.474 25.4633 116.463 25.0361 116.463 24.5233C116.463 23.9892 116.474 23.5512 116.495 23.2094C116.559 21.6498 116.944 20.3252 117.649 19.2356C118.354 18.1247 119.315 17.2808 120.533 16.704C121.772 16.1271 123.182 15.8387 124.763 15.8387C126.237 15.8387 127.498 16.0523 128.545 16.4796C129.592 16.8855 130.446 17.3983 131.108 18.0179C131.771 18.6374 132.262 19.2784 132.583 19.9407C132.924 20.5816 133.106 21.1477 133.127 21.6391C133.149 21.8528 133.074 22.045 132.903 22.216C132.732 22.3655 132.54 22.4403 132.326 22.4403H128.256C128.021 22.4403 127.84 22.3869 127.711 22.2801C127.583 22.1732 127.466 22.013 127.359 21.7994C127.103 21.1371 126.771 20.667 126.366 20.3893C125.981 20.1116 125.479 19.9727 124.859 19.9727C124.005 19.9727 123.342 20.2504 122.872 20.8059C122.424 21.3614 122.135 21.0943 122.135 23.3696C122.135 25.6449 120.533 25.004 122.135 25.6449C122.135 25.6449 122.424 27.6746 122.872 28.2087C123.342 28.7428 124.005 29.0098 124.859 29.0098C125.522 29.0098 126.045 28.871 126.43 28.5932C126.814 28.3155 127.124 27.8455 127.359 27.1832C127.466 26.9695 127.583 26.8093 127.711 26.7025C127.84 26.5957 128.021 26.5422 128.256 26.5422H132.326C132.54 26.5422 132.732 26.6277 132.903 26.7986C133.074 26.9482 133.149 27.1298 133.127 27.3434C133.106 27.7066 132.999 28.1339 132.807 28.6253C132.615 29.0953 132.316 29.5974 131.91 30.1315C131.504 30.6656 130.97 31.1676 130.307 31.6376C129.666 32.0863 128.887 32.4495 127.968 32.7272C127.049 33.005 125.981 33.1438 124.763 33.1438Z" fill="url(#paint6_linear_4065_20732)"/>
<path d="M136.808 32.8234C136.573 32.8234 136.38 32.7486 136.231 32.599C136.081 32.4495 141.706 36.028 136.007 32.0222C130.307 28.0164 136.007 10.8715 136.007 10.8715C136.007 10.6365 136.081 10.4442 136.231 10.2946C136.38 10.1451 136.573 10.0703 136.808 10.0703H140.525C140.739 10.0703 140.92 10.1451 141.07 10.2946C141.241 10.4442 141.326 10.6365 141.326 10.8715V21.6071L145.781 16.704C145.909 16.5544 146.048 16.4262 146.197 16.3194C146.347 16.2126 146.561 16.1592 146.838 16.1592H151.133C151.325 16.1592 151.485 16.2339 151.613 16.3835C151.763 16.5117 151.838 16.6719 151.838 16.8642C151.838 16.9496 151.816 17.0458 151.774 17.1526C151.731 17.2594 151.667 17.3449 151.581 17.409L145.813 23.626L152.382 31.6056C152.553 31.7765 152.639 31.9474 152.639 32.1183C152.639 32.3106 152.564 32.4815 152.414 32.6311C152.286 32.7593 152.115 32.8234 151.902 32.8234H147.511C147.191 32.8234 146.956 32.77 146.806 32.6631C146.657 32.535 146.518 32.4068 146.39 32.2786L141.326 26.1897V32.0222C141.326 32.2572 141.241 32.4495 141.07 32.599C140.92 32.7486 140.739 32.8234 140.525 32.8234H136.808Z" fill="url(#paint7_linear_4065_20732)"/>
<defs>
<linearGradient id="paint0_linear_4065_20732" x1="170.603" y1="4.51726" x2="-25.4331" y2="34.0604" gradientUnits="userSpaceOnUse">
<stop stop-color="#7367F0"/>
<stop offset="0.973954" stop-color="#FED70E"/>
</linearGradient>
<linearGradient id="paint1_linear_4065_20732" x1="170.603" y1="4.51726" x2="-25.4331" y2="34.0604" gradientUnits="userSpaceOnUse">
<stop stop-color="#7367F0"/>
<stop offset="0.973954" stop-color="#FED70E"/>
</linearGradient>
<linearGradient id="paint2_linear_4065_20732" x1="170.603" y1="4.51726" x2="-25.4331" y2="34.0604" gradientUnits="userSpaceOnUse">
<stop stop-color="#7367F0"/>
<stop offset="0.973954" stop-color="#FED70E"/>
</linearGradient>
<linearGradient id="paint3_linear_4065_20732" x1="170.603" y1="4.51726" x2="-25.4331" y2="34.0604" gradientUnits="userSpaceOnUse">
<stop stop-color="#7367F0"/>
<stop offset="0.973954" stop-color="#FED70E"/>
</linearGradient>
<linearGradient id="paint4_linear_4065_20732" x1="170.603" y1="4.51726" x2="-25.4331" y2="34.0604" gradientUnits="userSpaceOnUse">
<stop stop-color="#7367F0"/>
<stop offset="0.973954" stop-color="#FED70E"/>
</linearGradient>
<linearGradient id="paint5_linear_4065_20732" x1="170.603" y1="4.51726" x2="-25.4331" y2="34.0604" gradientUnits="userSpaceOnUse">
<stop stop-color="#7367F0"/>
<stop offset="0.973954" stop-color="#FED70E"/>
</linearGradient>
<linearGradient id="paint6_linear_4065_20732" x1="170.603" y1="4.51726" x2="-25.4331" y2="34.0604" gradientUnits="userSpaceOnUse">
<stop stop-color="#7367F0"/>
<stop offset="0.973954" stop-color="#FED70E"/>
</linearGradient>
<linearGradient id="paint7_linear_4065_20732" x1="170.603" y1="4.51726" x2="-25.4331" y2="34.0604" gradientUnits="userSpaceOnUse">
<stop stop-color="#7367F0"/>
<stop offset="0.973954" stop-color="#FED70E"/>
</linearGradient>
</defs>
</svg>
