<svg width="150" height="35" viewBox="0 0 150 35" fill="none" xmlns="http://www.w3.org/2000/svg">
<path d="M33.1147 34.9754C32.7379 34.976 32.3647 34.9034 32.0172 34.7618C31.6696 34.6202 31.3547 34.4124 31.091 34.1507L0.838712 4.75069C0.475127 4.35309 0.235932 3.86273 0.149295 3.33736C0.0626569 2.81199 0.132183 2.27348 0.349686 1.78525C0.56719 1.29701 0.923614 0.87938 1.37699 0.581528C1.83036 0.283676 2.36181 0.118005 2.90876 0.104023C3.64189 0.0850035 4.35474 0.339435 4.90116 0.815158L35.1383 30.2152C35.5371 30.6057 35.8084 31.102 35.9181 31.6419C36.0277 32.1818 35.9708 32.7412 35.7545 33.2498C35.5383 33.7584 35.1724 34.1935 34.7028 34.5005C34.2331 34.8075 33.6806 34.9727 33.1147 34.9754ZM33.117 18.0528C32.74 18.0518 32.367 17.9784 32.0193 17.8367C31.6716 17.695 31.3562 17.4879 31.0912 17.2272L18.2662 4.75571C18.0002 4.49704 17.7892 4.18994 17.6452 3.85196C17.5012 3.51397 17.4271 3.15171 17.4271 2.78586C17.4271 2.42002 17.5012 2.05776 17.6452 1.71977C17.7892 1.38178 18.0002 1.07468 18.2662 0.816014C18.5323 0.557306 18.8481 0.352087 19.1957 0.212075C19.5432 0.0720633 19.9158 0 20.292 0C20.6682 0 21.0407 0.0720633 21.3883 0.212075C21.7359 0.352087 22.0517 0.557306 22.3177 0.816014L35.1428 13.2873C35.4112 13.5447 35.6244 13.8514 35.7698 14.1895C35.9153 14.5277 35.9902 14.8906 35.9902 15.2572C35.9902 15.6238 35.9153 15.9867 35.7698 16.3249C35.6244 16.6631 35.4112 16.9698 35.1428 17.2272C34.8798 17.4905 34.5647 17.6993 34.2166 17.8412C33.8685 17.9831 33.4944 18.055 33.117 18.0528ZM15.6903 34.9999C15.3134 34.9989 14.9403 34.9254 14.5927 34.7837C14.245 34.642 13.9296 34.4349 13.6644 34.1743L0.839467 21.7029C0.370654 21.2472 0.0788621 20.6475 0.0138259 20.0059C-0.0512103 19.3644 0.114535 18.7208 0.48281 18.1849C0.851086 17.6489 1.3991 17.2537 2.03344 17.0667C2.66778 16.8796 3.34919 16.9123 3.96152 17.1592C4.30916 17.2991 4.62503 17.5044 4.89109 17.7631L17.7159 30.2345C17.9844 30.4918 18.1975 30.7985 18.343 31.1367C18.4885 31.4748 18.5634 31.8378 18.5633 32.2044C18.5633 32.5709 18.4884 32.9339 18.343 33.272C18.1975 33.6102 17.9844 33.9169 17.7159 34.1743C17.4529 34.4375 17.1379 34.6464 16.7898 34.7883C16.4417 34.9302 16.0677 35.0022 15.6903 34.9999Z" fill="#2962FF"/>
<path d="M53.5238 27.2152C52.2148 27.2152 51.0492 26.991 50.0271 26.5427C49.005 26.0944 48.1981 25.4848 47.6063 24.7137C47.0146 23.9247 46.6828 23.046 46.6111 22.0777H51.1568C51.2106 22.5977 51.4527 23.0191 51.8831 23.3419C52.3134 23.6647 52.8424 23.8261 53.47 23.8261C54.0438 23.8261 54.4832 23.7185 54.788 23.5033C55.1108 23.2702 55.2722 22.9743 55.2722 22.6157C55.2722 22.1853 55.048 21.8715 54.5997 21.6742C54.1514 21.4591 53.4252 21.2259 52.421 20.9749C51.3451 20.7239 50.4485 20.4638 49.7312 20.1949C49.014 19.908 48.3953 19.4686 47.8753 18.8769C47.3553 18.2672 47.0953 17.4513 47.0953 16.4292C47.0953 15.5685 47.3284 14.7884 47.7946 14.0891C48.2788 13.3718 48.9781 12.807 49.8926 12.3945C50.8251 11.9821 51.9279 11.7759 53.201 11.7759C55.0839 11.7759 56.5633 12.2421 57.6392 13.1746C58.733 14.107 59.3606 15.3443 59.522 16.8864H55.2722C55.2004 16.3664 54.9673 15.954 54.5728 15.6491C54.1963 15.3443 53.6942 15.1919 53.0666 15.1919C52.5286 15.1919 52.1162 15.2995 51.8293 15.5147C51.5423 15.7119 51.3989 15.9899 51.3989 16.3485C51.3989 16.7789 51.623 17.1016 52.0713 17.3168C52.5376 17.532 53.2548 17.7472 54.2232 17.9624C55.3349 18.2493 56.2405 18.5362 56.9398 18.8231C57.6392 19.0921 58.2489 19.5404 58.7689 20.168C59.3068 20.7777 59.5848 21.6025 59.6027 22.6426C59.6027 23.5212 59.3517 24.3102 58.8496 25.0096C58.3654 25.691 57.6571 26.2289 56.7247 26.6234C55.8101 27.0179 54.7432 27.2152 53.5238 27.2152ZM67.0162 14.116C67.4645 13.4166 68.0831 12.8518 68.8721 12.4214C69.6611 11.9911 70.5846 11.7759 71.6426 11.7759C72.8799 11.7759 74.0006 12.0897 75.0048 12.7173C76.009 13.3449 76.798 14.2415 77.3718 15.4071C77.9636 16.5726 78.2595 17.9265 78.2595 19.4686C78.2595 21.0108 77.9636 22.3736 77.3718 23.5571C76.798 24.7227 76.009 25.6282 75.0048 26.2738C74.0006 26.9014 72.8799 27.2152 71.6426 27.2152C70.6026 27.2152 69.6791 27 68.8721 26.5696C68.0831 26.1393 67.4645 25.5834 67.0162 24.902V34.1548H62.4167V11.9911H67.0162V14.116ZM73.5792 19.4686C73.5792 18.321 73.2565 17.4244 72.6109 16.7789C71.9833 16.1154 71.2033 15.7836 70.2708 15.7836C69.3563 15.7836 68.5763 16.1154 67.9307 16.7789C67.3031 17.4423 66.9893 18.3479 66.9893 19.4955C66.9893 20.6432 67.3031 21.5487 67.9307 22.2122C68.5763 22.8757 69.3563 23.2074 70.2708 23.2074C71.1853 23.2074 71.9654 22.8757 72.6109 22.2122C73.2565 21.5308 73.5792 20.6163 73.5792 19.4686ZM94.8207 19.2534C94.8207 19.6838 94.7938 20.1321 94.74 20.5983H84.3306C84.4023 21.5308 84.6982 22.2481 85.2182 22.7502C85.7562 23.2343 86.4107 23.4764 87.1817 23.4764C88.3294 23.4764 89.1273 22.9922 89.5756 22.0239H94.471C94.22 23.0102 93.7627 23.8978 93.0992 24.6868C92.4537 25.4758 91.6378 26.0944 90.6515 26.5427C89.6653 26.991 88.5625 27.2152 87.3431 27.2152C85.8727 27.2152 84.5637 26.9014 83.416 26.2738C82.2684 25.6461 81.3718 24.7496 80.7263 23.584C80.0807 22.4184 79.758 21.0556 79.758 19.4955C79.758 17.9355 80.0718 16.5726 80.6994 15.4071C81.3449 14.2415 82.2415 13.3449 83.3892 12.7173C84.5368 12.0897 85.8548 11.7759 87.3431 11.7759C88.7956 11.7759 90.0867 12.0807 91.2164 12.6904C92.3461 13.3001 93.2248 14.1698 93.8524 15.2995C94.4979 16.4292 94.8207 17.7472 94.8207 19.2534ZM90.1136 18.043C90.1136 17.254 89.8446 16.6264 89.3067 16.1602C88.7687 15.694 88.0963 15.4609 87.2893 15.4609C86.5183 15.4609 85.8637 15.685 85.3258 16.1333C84.8058 16.5816 84.483 17.2182 84.3575 18.043H90.1136ZM106.392 11.8297C108.15 11.8297 109.548 12.4035 110.588 13.5511C111.646 14.6808 112.175 16.2409 112.175 18.2313V27H107.603V18.85C107.603 17.8458 107.343 17.0658 106.823 16.5099C106.303 15.954 105.603 15.676 104.725 15.676C103.846 15.676 103.147 15.954 102.627 16.5099C102.107 17.0658 101.847 17.8458 101.847 18.85V27H97.2472V11.9911H101.847V13.9815C102.313 13.318 102.941 12.798 103.73 12.4214C104.519 12.0269 105.406 11.8297 106.392 11.8297ZM114.457 19.4686C114.457 17.9265 114.744 16.5726 115.318 15.4071C115.91 14.2415 116.708 13.3449 117.712 12.7173C118.716 12.0897 119.837 11.7759 121.074 11.7759C122.06 11.7759 122.957 11.9821 123.764 12.3945C124.589 12.807 125.234 13.3628 125.7 14.0622V7.09566H130.3V27H125.7V24.8482C125.27 25.5655 124.651 26.1393 123.844 26.5696C123.055 27 122.132 27.2152 121.074 27.2152C119.837 27.2152 118.716 26.9014 117.712 26.2738C116.708 25.6282 115.91 24.7227 115.318 23.5571C114.744 22.3736 114.457 21.0108 114.457 19.4686ZM125.7 19.4955C125.7 18.3479 125.378 17.4423 124.732 16.7789C124.104 16.1154 123.333 15.7836 122.419 15.7836C121.504 15.7836 120.724 16.1154 120.079 16.7789C119.451 17.4244 119.137 18.321 119.137 19.4686C119.137 20.6163 119.451 21.5308 120.079 22.2122C120.724 22.8757 121.504 23.2074 122.419 23.2074C123.333 23.2074 124.104 22.8757 124.732 22.2122C125.378 21.5487 125.7 20.6432 125.7 19.4955ZM148.959 11.9911L139.545 34.1279H134.596L138.039 26.4889L131.933 11.9911H137.07L140.54 21.3784L143.983 11.9911H148.959Z" fill="#304FFE"/>
</svg>
