<svg width="99" height="99" viewBox="0 0 99 99" fill="none" xmlns="http://www.w3.org/2000/svg">
<g clip-path="url(#clip0_14_6)">
<path d="M49.499 93.6086C73.7437 93.6086 93.3979 73.9544 93.3979 49.7097C93.3979 25.465 73.7437 5.81079 49.499 5.81079C25.2543 5.81079 5.60007 25.465 5.60007 49.7097C5.60007 73.9544 25.2543 93.6086 49.499 93.6086Z" fill="white"/>
<path d="M22.4712 41.6155V42.2031C22.4712 43.3134 22.2422 44.0779 21.7843 44.4966C21.3264 44.9153 20.491 45.1855 19.2781 45.307L16.94 45.536C16.5337 45.5753 16.1567 45.7646 15.8825 46.0669C15.6083 46.3692 15.4565 46.7629 15.4569 47.171V48.0118C15.4569 49.0289 16.3058 49.5381 18.0037 49.5395C19.9366 49.5395 20.903 49.0951 20.903 48.2063V47.4628C20.903 47.1629 21.1644 47.011 21.6871 47.011C22.2098 47.011 22.4712 47.1629 22.4712 47.4628V48.0118C22.4712 49.9447 21.034 50.9111 18.1597 50.9111C16.8941 50.9111 15.8655 50.6626 15.074 50.1656C14.2825 49.6685 13.8874 48.8851 13.8887 47.8153V41.656C13.8887 40.5755 14.3068 39.788 15.1429 39.2936C15.979 38.7993 17.0697 38.5548 18.415 38.5602C19.7657 38.5602 20.7787 38.7952 21.4541 39.2653C22.1294 39.7353 22.4685 40.5187 22.4712 41.6155ZM16.2288 41.8505L16.2451 42.3388C16.2521 42.5634 16.3051 42.7842 16.4008 42.9874C16.4965 43.1907 16.6328 43.3722 16.8015 43.5207C16.9701 43.6692 17.1674 43.7815 17.3811 43.8508C17.5949 43.92 17.8206 43.9447 18.0442 43.9232L18.9884 43.8341C19.734 43.7551 19.7299 43.9779 20.0399 43.4876C20.1824 43.3011 20.2833 43.0863 20.3357 42.8575C20.377 42.632 20.3673 42.4001 20.3073 42.1788L20.1412 41.5345C20.1102 41.4126 20.0932 41.2875 20.0905 41.1617C20.0723 40.3513 19.8879 40.6025 18.18 40.6025C16.3646 40.5924 16.2288 40.8314 16.2288 41.8505Z" fill="#00A79D"/>
<path d="M35.6589 36.4693V50.2628C35.6589 50.5626 35.3975 50.7126 34.8748 50.7126C34.3521 50.7126 34.0927 50.5626 34.0927 50.2628V44.1683H28.1624V50.2628C28.1624 50.5626 27.9011 50.7126 27.3783 50.7126C26.8556 50.7126 26.5942 50.5626 26.5942 50.2628V36.4693C26.5942 36.1694 26.8556 36.0195 27.3783 36.0195C27.9011 36.0195 28.1624 36.1694 28.1624 36.4693V42.7906H34.0988V36.4693C34.0988 36.1694 34.3582 36.0195 34.8809 36.0195C35.4036 36.0195 35.6589 36.1633 35.6589 36.4693Z" fill="#00A79D"/>
<path d="M48.3502 41.6155V42.2031C48.3502 43.3134 48.1213 44.0779 47.6634 44.4966C47.2055 44.9153 46.3701 45.1855 45.1571 45.307L41.3319 45.6717V48.0037C41.3319 49.0208 42.1808 49.53 43.8787 49.5314C45.8115 49.5314 46.778 49.087 46.778 48.1982V47.4547C46.778 47.1548 47.0393 47.0029 47.5621 47.0029C48.0848 47.0029 48.3461 47.1548 48.3461 47.4547V48.0037C48.3461 49.9366 46.9097 50.903 44.0367 50.903C42.7684 50.903 41.7398 50.6545 40.951 50.1574C40.1622 49.6604 39.7684 48.8797 39.7698 47.8153V41.656C39.7698 40.5755 40.1878 39.788 41.0239 39.2936C41.86 38.7993 42.95 38.5548 44.294 38.5602C45.6447 38.5602 46.6578 38.7952 47.3331 39.2653C48.0085 39.7353 48.3475 40.5187 48.3502 41.6155ZM41.3319 41.4595V44.296L45.0153 43.9232C45.7609 43.8462 46.2309 43.6882 46.4558 43.4532C46.6807 43.2181 46.778 42.8008 46.778 42.199V41.4555C46.778 40.4357 45.8703 39.9265 44.0549 39.9278C42.2396 39.9292 41.3319 40.4397 41.3319 41.4595Z" fill="#00A79D"/>
<path d="M57.4209 50.6093H55.1274C53.9793 50.6093 53.15 50.3743 52.6394 49.9042C52.1288 49.4342 51.8715 48.6372 51.8675 47.5134V47.3554C51.8675 46.2465 52.0964 45.4826 52.5543 45.0639C53.0122 44.6452 53.828 44.3751 55.0018 44.2535L58.3914 43.9192V41.7533C58.3914 40.7349 57.5033 40.2257 55.7271 40.2257H53.0507C52.7893 40.2257 52.6597 39.9967 52.6597 39.5388C52.6597 39.0809 52.7893 38.854 53.0507 38.854H55.7352C57.0157 38.854 58.0409 39.0992 58.8108 39.5895C59.5807 40.0798 59.9677 40.8666 59.9718 41.9498V47.7282C59.9718 48.5765 60.1217 49.2518 60.4215 49.7543C60.4834 49.8439 60.53 49.9432 60.5593 50.0481C60.5593 50.2061 60.4357 50.3722 60.1865 50.5485C60.0086 50.6965 59.7907 50.7882 59.5605 50.8119C59.2728 50.8119 59.0073 50.5424 58.7662 50.0015C58.5034 49.3452 58.3799 48.6414 58.4036 47.9349V45.301L55.1315 45.6353C54.4264 45.7123 53.9705 45.8703 53.7618 46.1053C53.5532 46.3403 53.4478 46.7577 53.4478 47.3574V47.5155C53.4478 48.1415 53.5552 48.5873 53.7699 48.8466C53.9847 49.1059 54.4406 49.2397 55.1315 49.2397H57.425C57.6863 49.2397 57.816 49.4686 57.816 49.9245C57.816 50.3803 57.6823 50.6093 57.4209 50.6093Z" fill="#00A79D"/>
<path d="M65.8474 35.3853V48.3157C65.8444 48.7234 65.9455 49.1251 66.1411 49.4828C66.3438 49.8414 66.4349 50.0278 66.4349 50.0399C66.4349 50.198 66.3093 50.3641 66.0621 50.5404C65.8841 50.6882 65.6662 50.7798 65.4361 50.8038C65.1605 50.8038 64.8992 50.5667 64.652 50.0885C64.4005 49.6016 64.2724 49.0603 64.2792 48.5123V35.3853C64.2792 35.0855 64.5405 34.9355 65.0633 34.9355C65.586 34.9355 65.8474 35.0855 65.8474 35.3853Z" fill="#00A79D"/>
<path d="M72.505 36.5625V38.854H74.5595C74.8208 38.854 74.9525 39.0829 74.9525 39.5388C74.9525 39.9946 74.8208 40.2256 74.5595 40.2256H72.505V48.3157C72.502 48.7234 72.6032 49.1251 72.7988 49.4827C73.0014 49.8414 73.0926 50.0278 73.0926 50.0399C73.0926 50.1979 72.969 50.3641 72.7198 50.5403C72.5421 50.6887 72.3241 50.7804 72.0937 50.8037C71.8202 50.8037 71.5589 50.5667 71.3097 50.0885C71.0597 49.6011 70.9324 49.06 70.9389 48.5122V40.2256H69.3707C69.1093 40.2256 68.9797 39.9967 68.9797 39.5388C68.9797 39.0809 69.1093 38.854 69.3707 38.854H70.9389V36.5625C70.9389 36.2606 71.1982 36.1107 71.721 36.1107C72.2437 36.1107 72.505 36.2667 72.505 36.5625Z" fill="#00A79D"/>
<path d="M86.3755 41.656V50.2567C86.3755 50.5566 86.1142 50.7065 85.5914 50.7065C85.0687 50.7065 84.8073 50.5566 84.8073 50.2567V41.4595C84.8073 40.4397 83.9166 39.9305 82.135 39.9318C80.3534 39.9332 79.4619 40.4424 79.4605 41.4595V50.2567C79.4605 50.5566 79.1992 50.7065 78.6765 50.7065C78.1537 50.7065 77.8924 50.5566 77.8924 50.2567V35.3853C77.8924 35.0855 78.1537 34.9355 78.6765 34.9355C79.1992 34.9355 79.4605 35.0855 79.4605 35.3853V39.3625C80.1778 38.8222 81.1233 38.5521 82.297 38.5521C83.4708 38.5521 84.444 38.7966 85.2166 39.2855C85.9879 39.7812 86.3742 40.5714 86.3755 41.656Z" fill="#00A79D"/>
<path d="M38.8236 53.8246V54.1589C38.8236 54.7911 38.6933 55.2267 38.4326 55.4658C38.1719 55.7048 37.6958 55.8561 37.0042 55.9196L34.8262 56.1323V57.4614C34.8262 58.0409 35.3104 58.3327 36.2789 58.3327C37.3797 58.3327 37.9301 58.0794 37.9301 57.5729V57.1474C37.9301 56.9772 38.08 56.8901 38.3779 56.8901C38.6757 56.8901 38.8236 56.9772 38.8236 57.1474V57.4614C38.8236 58.5609 38.0051 59.1113 36.368 59.1127C35.7535 59.1407 35.1437 58.9939 34.6094 58.6892C34.1576 58.4056 33.9327 57.9598 33.9327 57.348V53.8429C33.9145 53.574 33.9719 53.3053 34.0982 53.0673C34.2246 52.8292 34.415 52.6312 34.6479 52.4955C35.2215 52.1946 35.8646 52.0506 36.5119 52.0782C37.2791 52.0782 37.8565 52.2132 38.2441 52.4834C38.6311 52.7528 38.8236 53.1986 38.8236 53.8246ZM34.8262 53.7355V55.3563L36.9252 55.1537C37.3506 55.1092 37.6242 55.02 37.7457 54.8863C37.8908 54.6776 37.9562 54.4239 37.9301 54.1711V53.7476C37.9301 53.1655 37.4128 52.8751 36.3781 52.8764C35.3435 52.8778 34.8262 53.1641 34.8262 53.7355Z" fill="#8DC63F"/>
<path d="M44.5979 58.7561C44.3528 58.9952 43.9354 59.1127 43.3478 59.1127C42.7603 59.1127 42.3348 58.9952 42.0957 58.7561C41.8566 58.517 41.6905 58.128 41.5932 57.583L40.7666 52.6475C40.7443 52.4915 40.7342 52.4064 40.7342 52.3902C40.7342 52.2564 40.876 52.1876 41.1576 52.1876C41.4393 52.1876 41.5973 52.2727 41.6277 52.4449L42.4645 57.4594C42.4864 57.7027 42.5732 57.9357 42.7157 58.1341C42.9013 58.262 43.1214 58.3305 43.3468 58.3305C43.5722 58.3305 43.7923 58.262 43.9779 58.1341C44.1204 57.9357 44.2072 57.7027 44.2292 57.4594L45.0659 52.4449C45.0963 52.2727 45.2523 52.1876 45.536 52.1876C45.8196 52.1876 45.9594 52.2544 45.9594 52.3902C45.9594 52.4064 45.9493 52.4915 45.927 52.6475L45.1004 57.583C45.0112 58.1321 44.8431 58.5211 44.5979 58.7561Z" fill="#8DC63F"/>
<path d="M52.761 53.8246V54.1589C52.761 54.7911 52.6306 55.2267 52.3699 55.4657C52.1106 55.7048 51.6324 55.8568 50.9416 55.9236L48.7635 56.1364V57.4655C48.7635 58.0449 49.2478 58.3367 50.2142 58.3367C51.3164 58.3367 51.8675 58.0834 51.8675 57.5769V57.1514C51.8675 56.9812 52.0174 56.8941 52.3152 56.8941C52.6131 56.8941 52.761 56.9812 52.761 57.1514V57.4655C52.761 58.565 51.9424 59.1154 50.3054 59.1167C49.6903 59.1445 49.0799 58.9977 48.5447 58.6933C48.322 58.5511 48.1418 58.3514 48.0231 58.1153C47.9043 57.8793 47.8515 57.6156 47.87 57.352V53.8469C47.8514 53.5779 47.9086 53.3091 48.035 53.071C48.1614 52.8328 48.352 52.6349 48.5852 52.4996C49.1589 52.1986 49.802 52.0546 50.4492 52.0822C51.2171 52.0822 51.7925 52.2159 52.1815 52.4874C52.5705 52.7589 52.761 53.1986 52.761 53.8246ZM48.7635 53.7355V55.3563L50.8625 55.1537C51.288 55.1091 51.5615 55.02 51.6831 54.8863C51.8282 54.6776 51.8936 54.4239 51.8675 54.1711V53.7476C51.8675 53.1655 51.3501 52.8751 50.3155 52.8764C49.2808 52.8778 48.7635 53.1641 48.7635 53.7355Z" fill="#8DC63F"/>
<path d="M58.0774 54.2987V53.7416C58.0774 53.1594 57.7309 52.869 57.038 52.8704C56.3451 52.8704 56.0006 53.1601 56.0006 53.7416V58.8675C56.0006 59.0377 55.8507 59.1228 55.5529 59.1228C55.2551 59.1228 55.1071 59.0377 55.1071 58.8675V53.8469C55.1071 53.2296 55.2834 52.7805 55.636 52.4996C56.0425 52.2055 56.5368 52.0583 57.038 52.0822C58.3266 52.0822 58.9709 52.663 58.9709 53.8246V54.2987C58.9709 54.471 58.8209 54.5561 58.5231 54.5561C58.2253 54.5561 58.0774 54.4649 58.0774 54.2987Z" fill="#8DC63F"/>
<path d="M61.9067 61.7425H61.0962C60.9463 61.7425 60.8713 61.6108 60.8713 61.3515C60.8713 61.0922 60.9463 60.9605 61.0962 60.9605H61.9067C62.324 60.9605 62.6117 60.8997 62.7677 60.7761C62.9538 60.5928 63.0686 60.3494 63.0919 60.0892L63.2479 59.1167H62.6057C62.0181 59.1167 61.5926 58.9992 61.3556 58.7601C61.1185 58.5211 60.9504 58.1321 60.8531 57.5871L60.0427 52.6738C60.0143 52.5016 59.9981 52.4104 59.9981 52.3942C59.9981 52.2592 60.1399 52.1916 60.4236 52.1916C60.7052 52.1916 60.8632 52.2767 60.8916 52.4489L61.7304 57.4635C61.7514 57.707 61.8382 57.9402 61.9816 58.1381C62.0665 58.2144 62.1665 58.2718 62.2751 58.3067C62.3836 58.3416 62.4984 58.3532 62.6117 58.3408H63.3938L64.3764 52.455C64.4068 52.2828 64.5547 52.1977 64.8242 52.1977C65.0937 52.1977 65.2294 52.2646 65.2294 52.4003C65.2294 52.4165 65.2173 52.5016 65.195 52.6576L63.9408 59.9717C63.822 60.6795 63.6315 61.1523 63.3695 61.39C63.1075 61.6277 62.6198 61.7452 61.9067 61.7425Z" fill="#8DC63F"/>
<path d="M71.958 53.8469V57.352C71.958 57.972 71.7392 58.4197 71.2995 58.6993C70.7665 59.0013 70.1589 59.146 69.547 59.1167C68.9326 59.1453 68.3225 59.0007 67.7863 58.6993C67.3446 58.4197 67.1218 57.972 67.1218 57.352V53.8469C67.1218 53.2296 67.3419 52.7805 67.7823 52.4996C68.3153 52.1976 68.9229 52.0529 69.5348 52.0822C70.1486 52.0538 70.7579 52.1984 71.2934 52.4996C71.7378 52.7792 71.9594 53.2283 71.958 53.8469ZM71.0645 57.4655V53.7355C71.0645 53.1533 70.5566 52.8629 69.5409 52.8643C68.5252 52.8656 68.0166 53.156 68.0153 53.7355V57.4655C68.0153 58.0449 68.5238 58.3367 69.5409 58.3367C70.558 58.3367 71.0645 58.0449 71.0645 57.4655Z" fill="#8DC63F"/>
<path d="M79.1384 53.8469V58.7561C79.1384 58.9283 78.9905 59.0134 78.6927 59.0134C78.3948 59.0134 78.2449 58.9283 78.2449 58.7561V53.7355C78.2449 53.154 77.7384 52.8643 76.7213 52.8643C75.7042 52.8643 75.1977 53.154 75.1977 53.7355V58.7561C75.1977 58.9283 75.0478 59.0134 74.7499 59.0134C74.4521 59.0134 74.3042 58.9283 74.3042 58.7561V53.8469C74.3042 53.2296 74.5237 52.7805 74.9627 52.4996C75.5072 52.2251 76.1085 52.0821 76.7183 52.0821C77.3281 52.0821 77.9293 52.2251 78.4739 52.4996C78.9182 52.7792 79.1398 53.2283 79.1384 53.8469Z" fill="#8DC63F"/>
<path d="M86.3755 53.8246V54.1589C86.3755 54.7911 86.2452 55.2267 85.9845 55.4658C85.7238 55.7048 85.2477 55.8561 84.5561 55.9196L82.3781 56.1323V57.4614C82.3781 58.0409 82.8623 58.3327 83.8288 58.3327C84.9309 58.3327 85.482 58.0794 85.482 57.5729V57.1474C85.482 56.9772 85.632 56.8901 85.9298 56.8901C86.2276 56.8901 86.3755 56.9772 86.3755 57.1474V57.4614C86.3755 58.5609 85.5563 59.1113 83.9179 59.1127C83.3035 59.1402 82.6938 58.9934 82.1593 58.6892C81.9366 58.547 81.7564 58.3474 81.6376 58.1113C81.5189 57.8753 81.466 57.6116 81.4846 57.348V53.8429C81.466 53.5739 81.5231 53.3051 81.6495 53.0669C81.776 52.8288 81.9666 52.6308 82.1998 52.4955C82.7735 52.1946 83.4165 52.0506 84.0638 52.0782C84.8317 52.0782 85.4071 52.2119 85.7941 52.4834C86.181 52.7549 86.3755 53.1986 86.3755 53.8246ZM82.3781 53.7355V55.3563L84.4771 55.1537C84.9006 55.1092 85.1761 55.02 85.2977 54.8863C85.4427 54.6776 85.5082 54.4239 85.482 54.1711V53.7476C85.482 53.1655 84.9647 52.8751 83.9301 52.8764C82.8954 52.8778 82.3781 53.1641 82.3781 53.7355Z" fill="#8DC63F"/>
<path d="M86.3755 62.0667V63.0493H32.1477V65.0369C32.1487 65.0497 32.1487 65.0626 32.1477 65.0754V68.0152C32.1491 68.0501 32.1435 68.0849 32.1314 68.1176C32.1193 68.1503 32.1009 68.1803 32.0772 68.2059C32.0535 68.2315 32.025 68.2522 31.9932 68.2668C31.9615 68.2813 31.9273 68.2895 31.8924 68.2908H31.3596C31.289 68.2881 31.2223 68.2577 31.1741 68.2061C31.1259 68.1544 31.1001 68.0858 31.1022 68.0152V63.0493H28.7561C27.9801 63.0493 27.4229 62.9075 27.0886 62.6259C26.7543 62.3443 26.5841 61.8985 26.5841 61.2806V61.0982C26.5841 60.6687 26.8637 59.7806 27.4229 58.4339L28.9019 54.9126C28.9157 54.8703 28.943 54.8337 28.9796 54.8084C29.0162 54.7832 29.0601 54.7707 29.1045 54.7728C29.2392 54.7792 29.3719 54.8072 29.4976 54.8559C29.7509 54.9795 29.8765 55.1051 29.8765 55.2348C29.8752 55.2692 29.8669 55.3029 29.8522 55.334L28.365 58.8695C27.8761 60.019 27.6316 60.7903 27.6316 61.1833V61.2522C27.6208 61.3655 27.6344 61.4798 27.6715 61.5875C27.7085 61.6951 27.7681 61.7935 27.8463 61.8762C27.9922 62.0039 28.2941 62.0667 28.7561 62.0667H31.1002V59.293C31.1008 59.2015 31.1375 59.1139 31.2024 59.0493C31.2673 58.9848 31.3551 58.9486 31.4467 58.9486H31.8093C31.8547 58.9483 31.8998 58.957 31.9418 58.9742C31.9838 58.9914 32.022 59.0167 32.0542 59.0487C32.0864 59.0807 32.112 59.1188 32.1294 59.1607C32.1468 59.2026 32.1558 59.2476 32.1558 59.293V62.0667H86.3755Z" fill="#8DC63F"/>
<path d="M49.499 98.1875C76.3889 98.1875 98.1875 76.3889 98.1875 49.499C98.1875 22.609 76.3889 0.810425 49.499 0.810425C22.609 0.810425 0.810425 22.609 0.810425 49.499C0.810425 76.3889 22.609 98.1875 49.499 98.1875Z" stroke="url(#paint0_linear_14_6)" stroke-width="2.53165" stroke-miterlimit="10"/>
</g>
<defs>
<linearGradient id="paint0_linear_14_6" x1="99" y1="49.501" x2="-5.16328e-06" y2="49.501" gradientUnits="userSpaceOnUse">
<stop stop-color="#00A79D"/>
<stop offset="1" stop-color="#8DC63F"/>
</linearGradient>
<clipPath id="clip0_14_6">
<rect width="99" height="99" fill="white"/>
</clipPath>
</defs>
</svg>
