<svg width="200" height="32" viewBox="0 0 200 32" fill="none" xmlns="http://www.w3.org/2000/svg">
<path d="M195.393 29.2356C194.356 29.2356 193.558 28.9963 193 28.5176C192.462 28.039 192.192 27.5005 192.192 26.9023C192.192 26.3837 192.382 25.935 192.761 25.5561C193.14 25.1772 193.698 24.9877 194.436 24.9877C194.695 24.9877 194.994 25.0177 195.333 25.0775C195.692 25.1174 195.962 25.1473 196.141 25.1672C196.121 24.6487 196.001 24.1601 195.782 23.7014C195.583 23.2427 195.323 22.804 195.004 22.3852C194.685 21.9464 194.386 21.5675 194.107 21.2484C193.489 22.4251 192.87 23.4023 192.252 24.1801C191.654 24.9578 190.996 25.6957 190.278 26.3937C189.919 26.7527 189.54 26.9322 189.141 26.9322C188.822 26.9322 188.563 26.8225 188.363 26.6031C188.164 26.3638 188.064 26.0746 188.064 25.7356C188.064 25.3367 188.204 24.9678 188.483 24.6288L188.872 24.1501C189.969 22.794 190.796 21.6772 191.355 20.7997C191.714 20.2214 192.073 19.5334 192.432 18.7356C192.811 17.9379 193.299 16.851 193.897 15.475C194.276 14.5975 195.064 14.1587 196.261 14.1587C196.819 14.1587 197.208 14.2086 197.427 14.3083C197.647 14.408 197.756 14.5676 197.756 14.7869C197.756 14.9066 197.717 15.0961 197.637 15.3553C197.557 15.6146 197.447 15.8738 197.308 16.1331C196.949 16.851 196.769 17.4593 196.769 17.9579C196.769 18.257 196.869 18.5861 197.068 18.945C197.288 19.304 197.617 19.7527 198.056 20.2912C198.694 21.1288 199.172 21.8467 199.491 22.445C199.83 23.0234 200 23.6615 200 24.3595C200 25.1971 199.801 25.9949 199.402 26.7527C199.023 27.4906 198.484 28.0889 197.786 28.5476C197.088 29.0062 196.291 29.2356 195.393 29.2356Z" fill="white"/>
<path d="M187.863 18.5861C188.302 18.5861 188.671 18.7456 188.97 19.0647C189.289 19.3638 189.448 19.7427 189.448 20.2014C189.448 20.4607 189.389 20.7399 189.269 21.039C188.95 21.7769 188.501 22.3952 187.923 22.8937C187.344 23.3923 186.706 23.6416 186.008 23.6416C185.45 23.6416 184.971 23.4422 184.572 23.0433C184.193 22.6444 184.004 22.106 184.004 21.4279C184.004 21.049 184.024 20.6402 184.064 20.2014C184.104 19.8823 184.124 19.663 184.124 19.5433C184.124 19.3838 184.084 19.2641 184.004 19.1843C183.944 19.1046 183.864 19.0647 183.765 19.0647C183.485 19.0647 183.107 19.4037 182.628 20.0818C182.149 20.7399 181.671 21.6174 181.192 22.7142C180.713 23.8111 180.325 24.9678 180.025 26.1843C179.806 27.1416 179.557 27.7797 179.278 28.0988C178.998 28.4179 178.54 28.5775 177.901 28.5775C177.144 28.5775 176.605 28.1786 176.286 27.3809C175.987 26.5832 175.837 25.3068 175.837 23.5518C175.837 20.9593 176.206 18.4963 176.944 16.163C177.124 15.5846 177.413 15.1658 177.812 14.9066C178.231 14.6274 178.809 14.4878 179.547 14.4878C179.946 14.4878 180.225 14.5376 180.384 14.6374C180.544 14.7371 180.624 14.9265 180.624 15.2057C180.624 15.5248 180.474 16.2428 180.175 17.3596C179.976 18.1573 179.816 18.8553 179.696 19.4536C179.577 20.0519 179.477 20.7897 179.397 21.6672C180.055 19.9521 180.793 18.5561 181.611 17.4792C182.428 16.4023 183.226 15.6345 184.004 15.1758C184.782 14.7171 185.49 14.4878 186.128 14.4878C186.706 14.4878 187.145 14.6573 187.444 14.9963C187.763 15.3154 187.923 15.794 187.923 16.4322C187.923 16.8111 187.813 17.5291 187.594 18.5861H187.863Z" fill="white"/>
<path d="M164.288 28.5775C163.53 28.5775 162.992 28.1786 162.673 27.3809C162.374 26.5832 162.224 25.3068 162.224 23.5518C162.224 20.9593 162.593 18.4963 163.331 16.163C163.51 15.5846 163.799 15.1658 164.198 14.9066C164.617 14.6274 165.195 14.4878 165.933 14.4878C166.332 14.4878 166.611 14.5376 166.771 14.6374C166.931 14.7371 167.01 14.9265 167.01 15.2057C167.01 15.5248 166.861 16.2428 166.562 17.3596C166.362 18.1573 166.203 18.8553 166.083 19.4536C165.963 20.0519 165.864 20.7897 165.784 21.6672C166.442 19.9521 167.18 18.5561 167.997 17.4792C168.815 16.4023 169.613 15.6345 170.391 15.1758C171.188 14.7171 171.916 14.4878 172.574 14.4878C173.871 14.4878 174.519 15.1359 174.519 16.4322C174.519 16.6915 174.429 17.3197 174.25 18.3168C174.09 19.1145 174.01 19.6131 174.01 19.8125C174.01 20.5105 174.26 20.8595 174.758 20.8595C175.316 20.8595 176.034 20.4208 176.912 19.5433C177.171 19.2841 177.44 19.1544 177.72 19.1544C177.979 19.1544 178.178 19.2741 178.318 19.5134C178.477 19.7328 178.557 20.0319 178.557 20.4108C178.557 21.1487 178.358 21.7271 177.959 22.1459C177.401 22.7242 176.742 23.2228 175.985 23.6416C175.247 24.0404 174.459 24.2399 173.621 24.2399C172.564 24.2399 171.757 23.9706 171.198 23.4322C170.66 22.8937 170.391 22.1658 170.391 21.2484C170.391 20.9493 170.421 20.6501 170.48 20.351C170.52 19.9521 170.54 19.6829 170.54 19.5433C170.54 19.2242 170.43 19.0647 170.211 19.0647C169.912 19.0647 169.513 19.4037 169.015 20.0818C168.536 20.7399 168.057 21.6174 167.579 22.7142C167.1 23.8111 166.711 24.9678 166.412 26.1843C166.193 27.1216 165.933 27.7598 165.634 28.0988C165.355 28.4179 164.906 28.5775 164.288 28.5775Z" fill="white"/>
<path d="M151.398 28.5775C150.5 28.5775 149.762 28.1686 149.184 27.351C148.626 26.5134 148.346 25.4763 148.346 24.2399C148.346 22.7442 148.446 21.3781 148.645 20.1416C148.845 18.8852 149.174 17.559 149.633 16.163C149.832 15.5647 150.111 15.1359 150.47 14.8767C150.829 14.6174 151.398 14.4878 152.175 14.4878C152.614 14.4878 152.913 14.5576 153.073 14.6972C153.252 14.8368 153.342 15.0462 153.342 15.3254C153.342 15.4849 153.232 16.0234 153.013 16.9408C152.814 17.6787 152.654 18.3467 152.534 18.945C152.135 21.039 151.936 22.435 151.936 23.133C151.936 23.5518 151.986 23.851 152.086 24.0305C152.185 24.19 152.345 24.2698 152.564 24.2698C152.863 24.2698 153.232 23.9706 153.671 23.3724C154.13 22.7741 154.608 21.8667 155.107 20.6502C155.625 19.4336 156.124 17.9379 156.603 16.163C156.762 15.5647 157.002 15.1359 157.321 14.8767C157.66 14.6174 158.158 14.4878 158.816 14.4878C159.275 14.4878 159.594 14.5476 159.774 14.6673C159.953 14.767 160.043 14.9664 160.043 15.2656C160.043 15.7641 159.794 17.1302 159.295 19.3638C158.737 21.9165 158.457 23.492 158.457 24.0903C158.457 24.4692 158.537 24.7684 158.697 24.9877C158.856 25.1872 159.066 25.2869 159.325 25.2869C159.724 25.2869 160.192 25.0476 160.731 24.5689C161.289 24.0704 162.027 23.2726 162.945 22.1758C163.184 21.8966 163.453 21.757 163.752 21.757C164.011 21.757 164.211 21.8766 164.35 22.116C164.51 22.3553 164.59 22.6843 164.59 23.1031C164.59 23.9008 164.4 24.5191 164.021 24.9578C163.164 26.0148 162.237 26.8823 161.239 27.5604C160.262 28.2384 159.145 28.5775 157.889 28.5775C156.932 28.5775 156.224 28.2085 155.765 27.4706C155.326 26.7327 155.107 25.6957 155.107 24.3595C154.768 25.7156 154.259 26.7627 153.581 27.5005C152.903 28.2185 152.175 28.5775 151.398 28.5775Z" fill="white"/>
<path d="M149.24 10.5989C149.24 12.294 148.801 13.8496 147.924 15.2655C147.047 16.6815 145.77 17.8382 144.095 18.7356C142.42 19.633 140.425 20.1615 138.112 20.3211L136.826 27.5304C136.327 30.3025 134.971 31.6885 132.757 31.6885C131.541 31.6885 130.414 31.3295 129.377 30.6116C128.36 29.8937 127.542 28.7968 126.924 27.321C126.306 25.8452 125.997 24.0304 125.997 21.8766C125.997 17.8282 126.645 14.398 127.941 11.5861C129.257 8.75417 131.012 6.64022 133.206 5.24422C135.42 3.82827 137.853 3.1203 140.505 3.1203C142.38 3.1203 143.965 3.44935 145.262 4.10747C146.578 4.76559 147.565 5.66302 148.223 6.79976C148.901 7.91657 149.24 9.18294 149.24 10.5989ZM138.651 17.2399C142.739 16.7214 144.783 14.5974 144.783 10.8681C144.783 9.55189 144.344 8.48494 143.467 7.66728C142.609 6.82968 141.273 6.41088 139.458 6.41088C137.404 6.41088 135.609 7.05902 134.074 8.35531C132.558 9.6516 131.381 11.4564 130.544 13.7698C129.726 16.0632 129.317 18.6857 129.317 21.6373C129.317 22.8738 129.437 23.9706 129.676 24.9279C129.935 25.8851 130.255 26.633 130.633 27.1714C131.032 27.69 131.411 27.9492 131.77 27.9492C132.269 27.9492 132.648 27.2612 132.907 25.8851L133.894 20.2313C133.116 20.1117 132.777 20.0618 132.877 20.0817C132.279 19.982 131.89 19.8025 131.71 19.5433C131.531 19.2641 131.441 18.9151 131.441 18.4963C131.441 18.0575 131.561 17.7085 131.8 17.4493C132.059 17.19 132.408 17.0604 132.847 17.0604C133.047 17.0604 133.196 17.0704 133.296 17.0903C133.774 17.1701 134.143 17.2199 134.403 17.2399C134.662 15.6843 135.031 13.6003 135.51 10.9878C135.629 10.3097 135.898 9.83109 136.317 9.55188C136.756 9.25274 137.264 9.10317 137.843 9.10317C138.501 9.10317 138.97 9.2328 139.249 9.49206C139.548 9.73137 139.698 10.1203 139.698 10.6587C139.698 10.9778 139.678 11.2371 139.638 11.4365L138.651 17.2399Z" fill="white"/>
<path d="M114.276 21.757C114.495 23.3923 114.814 25.0077 115.233 26.6031C115.313 26.8623 115.353 27.1316 115.353 27.4108C115.353 28.3082 114.804 28.7569 113.708 28.7569C113.089 28.7569 112.611 28.5874 112.272 28.2484C111.953 27.9093 111.653 27.2712 111.374 26.3339L111.344 26.2142C110.586 27.1515 109.898 27.7797 109.28 28.0988C108.682 28.4179 107.984 28.5774 107.186 28.5774C105.97 28.5774 104.963 28.1287 104.165 27.2313C103.387 26.3139 102.998 25.1273 102.998 23.6715C102.998 22.076 103.337 20.6003 104.015 19.2441C104.693 17.888 105.621 16.7812 106.797 15.9237C107.974 15.0462 109.29 14.5177 110.746 14.3382C111.125 10.569 111.843 7.28837 112.9 4.49636C113.977 1.70435 115.403 0.30835 117.178 0.30835C118.035 0.30835 118.743 0.697237 119.302 1.47501C119.88 2.25278 120.169 3.42942 120.169 5.00491C120.169 7.19863 119.631 9.76129 118.554 12.6929C117.477 15.6245 116.051 18.6459 114.276 21.757ZM116.849 3.23996C116.27 3.23996 115.722 4.71573 115.203 7.66729C114.705 10.6188 114.366 13.8296 114.186 17.2997C116.4 12.5134 117.507 8.62455 117.507 5.63311C117.507 4.87528 117.437 4.28696 117.297 3.86816C117.178 3.44936 117.028 3.23996 116.849 3.23996ZM108.233 25.5561C108.632 25.5561 109.011 25.4065 109.37 25.1074C109.749 24.8082 110.228 24.2299 110.806 23.3723C110.606 21.9165 110.507 20.4108 110.507 18.8553C110.507 18.237 110.517 17.7584 110.537 17.4194C109.44 17.7385 108.532 18.4664 107.814 19.6031C107.096 20.7399 106.738 21.9963 106.738 23.3723C106.738 24.8282 107.236 25.5561 108.233 25.5561Z" fill="white"/>
<path d="M90.6707 28.5775C89.9129 28.5775 89.3744 28.1786 89.0553 27.3809C88.7562 26.5832 88.6066 25.3068 88.6066 23.5518C88.6066 20.9593 88.9755 18.4963 89.7134 16.163C89.8929 15.5846 90.1821 15.1658 90.5809 14.9066C90.9997 14.6274 91.5781 14.4878 92.316 14.4878C92.7148 14.4878 92.994 14.5376 93.1536 14.6374C93.3131 14.7371 93.3929 14.9265 93.3929 15.2057C93.3929 15.5248 93.2433 16.2428 92.9442 17.3596C92.7447 18.1573 92.5852 18.8553 92.4655 19.4536C92.3459 20.0519 92.2462 20.7897 92.1664 21.6672C92.8245 19.9521 93.5624 18.5561 94.3801 17.4792C95.1977 16.4023 95.9954 15.6345 96.7732 15.1758C97.5709 14.7171 98.2988 14.4878 98.957 14.4878C100.253 14.4878 100.901 15.1359 100.901 16.4322C100.901 17.21 100.682 18.616 100.243 20.6502C99.8644 22.3852 99.6749 23.5319 99.6749 24.0903C99.6749 24.888 99.9641 25.2869 100.542 25.2869C100.941 25.2869 101.41 25.0476 101.948 24.5689C102.507 24.0704 103.245 23.2726 104.162 22.1758C104.401 21.8966 104.671 21.757 104.97 21.757C105.229 21.757 105.428 21.8766 105.568 22.116C105.728 22.3553 105.807 22.6843 105.807 23.1031C105.807 23.9008 105.618 24.5191 105.239 24.9578C104.381 26.0148 103.454 26.8823 102.457 27.5604C101.48 28.2384 100.363 28.5775 99.1065 28.5775C98.0895 28.5775 97.3216 28.2883 96.8031 27.7099C96.2846 27.1117 96.0254 26.2541 96.0254 25.1373C96.0254 24.5789 96.165 23.5818 96.4442 22.1459C96.7034 20.8895 96.833 20.0219 96.833 19.5433C96.833 19.2242 96.7234 19.0647 96.504 19.0647C96.2447 19.0647 95.8758 19.4037 95.3972 20.0818C94.9385 20.7399 94.4598 21.6174 93.9613 22.7142C93.4826 23.8111 93.0938 24.9678 92.7946 26.1843C92.5752 27.1216 92.316 27.7598 92.0168 28.0988C91.7376 28.4179 91.2889 28.5775 90.6707 28.5775Z" fill="white"/>
<path d="M78.1747 28.5774C76.9382 28.5774 75.951 28.1287 75.2131 27.2313C74.4753 26.3339 74.1063 25.1572 74.1063 23.7014C74.1063 22.106 74.4753 20.6003 75.2131 19.1843C75.951 17.7484 76.9282 16.6017 78.1448 15.7442C79.3812 14.8667 80.6875 14.4279 82.0635 14.4279C82.5023 14.4279 82.7914 14.5177 82.931 14.6972C83.0906 14.8567 83.2202 15.1559 83.3199 15.5946C83.7387 15.5148 84.1775 15.4749 84.6362 15.4749C85.6134 15.4749 86.102 15.8239 86.102 16.5219C86.102 16.9407 85.9524 17.9379 85.6533 19.5134C85.1946 21.8068 84.9652 23.4022 84.9652 24.2997C84.9652 24.5988 85.035 24.8381 85.1746 25.0176C85.3342 25.1971 85.5336 25.2869 85.7729 25.2869C86.1518 25.2869 86.6105 25.0475 87.149 24.5689C87.6874 24.0703 88.4154 23.2726 89.3327 22.1758C89.572 21.8966 89.8413 21.757 90.1404 21.757C90.3997 21.757 90.5991 21.8766 90.7387 22.1159C90.8982 22.3552 90.978 22.6843 90.978 23.1031C90.978 23.9008 90.7886 24.5191 90.4096 24.9578C89.592 25.9749 88.7245 26.8324 87.8071 27.5304C86.8897 28.2284 86.0023 28.5774 85.1447 28.5774C84.4866 28.5774 83.8783 28.3581 83.3199 27.9193C82.7815 27.4606 82.3726 26.8424 82.0934 26.0646C81.0564 27.7398 79.7502 28.5774 78.1747 28.5774ZM79.2516 25.5561C79.6903 25.5561 80.1091 25.2968 80.508 24.7783C80.9068 24.2598 81.196 23.5718 81.3755 22.7142L82.4823 17.21C81.6447 17.2299 80.867 17.549 80.149 18.1672C79.451 18.7655 78.8926 19.5632 78.4738 20.5604C78.055 21.5575 77.8456 22.6145 77.8456 23.7313C77.8456 24.3495 77.9653 24.8082 78.2046 25.1074C78.4638 25.4065 78.8128 25.5561 79.2516 25.5561Z" fill="white"/>
<path d="M60.3695 29.2356C59.3325 29.2356 58.5348 28.9963 57.9764 28.5176C57.4379 28.039 57.1687 27.5005 57.1687 26.9023C57.1687 26.3837 57.3582 25.935 57.7371 25.5561C58.116 25.1772 58.6744 24.9877 59.4123 24.9877C59.6715 24.9877 59.9707 25.0177 60.3097 25.0775C60.6687 25.1174 60.9379 25.1473 61.1174 25.1672C61.0974 24.6487 60.9778 24.1601 60.7584 23.7014C60.559 23.2427 60.2997 22.804 59.9806 22.3852C59.6616 21.9464 59.3624 21.5675 59.0832 21.2484C58.465 22.4251 57.8467 23.4023 57.2285 24.1801C56.6302 24.9578 55.9721 25.6957 55.2542 26.3937C54.8952 26.7527 54.5163 26.9322 54.1174 26.9322C53.7983 26.9322 53.5391 26.8225 53.3397 26.6031C53.1402 26.3638 53.0405 26.0746 53.0405 25.7356C53.0405 25.3367 53.1801 24.9678 53.4593 24.6288L53.8482 24.1501C54.9451 22.794 55.7727 21.6772 56.3311 20.7997C56.6901 20.2214 57.049 19.5334 57.408 18.7356C57.7869 17.9379 58.2755 16.851 58.8738 15.475C59.2527 14.5975 60.0405 14.1587 61.2371 14.1587C61.7955 14.1587 62.1843 14.2086 62.4037 14.3083C62.6231 14.408 62.7328 14.5676 62.7328 14.7869C62.7328 14.9066 62.6929 15.0961 62.6131 15.3553C62.5333 15.6146 62.4236 15.8738 62.284 16.1331C61.9251 16.851 61.7456 17.4593 61.7456 17.9579C61.7456 18.257 61.8453 18.5861 62.0447 18.945C62.2641 19.304 62.5932 19.7527 63.0319 20.2912C63.6701 21.1288 64.1487 21.8467 64.4678 22.445C64.8068 23.0234 64.9763 23.6615 64.9763 24.3595C64.9763 25.1971 64.7769 25.9949 64.3781 26.7527C63.9991 27.4906 63.4607 28.0889 62.7627 28.5476C62.0647 29.0062 61.267 29.2356 60.3695 29.2356Z" fill="white"/>
<path d="M53.8524 14.4579C54.9493 14.4579 55.4977 14.8069 55.4977 15.5049C55.4977 15.7442 55.4179 16.0733 55.2584 16.4921C53.643 20.2613 52.1174 23.3026 50.6815 25.616C49.9635 26.7527 49.3154 27.5305 48.7371 27.9493C48.1587 28.3681 47.5006 28.5775 46.7627 28.5775C45.965 28.5775 45.3667 28.2684 44.9678 27.6501C44.5889 27.0319 44.3496 26.0148 44.2499 24.5989C44.21 24.0803 44.1701 23.3026 44.1302 22.2655C43.512 23.9806 42.9436 25.2969 42.4251 26.2142C41.9265 27.1117 41.428 27.7299 40.9294 28.0689C40.4508 28.408 39.8724 28.5775 39.1944 28.5775C38.3767 28.5775 37.7286 28.2584 37.2499 27.6202C36.7913 26.982 36.5021 25.9749 36.3824 24.5989C36.1431 21.8069 36.0234 19.3638 36.0234 17.2698V16.2228C36.0434 15.5448 36.2129 15.0861 36.532 14.8468C36.8511 14.5875 37.3696 14.4579 38.0875 14.4579C38.6061 14.4579 38.985 14.5775 39.2243 14.8169C39.4835 15.0362 39.6132 15.4151 39.6132 15.9536C39.6132 18.247 39.7528 21.2285 40.032 24.898C40.6901 23.502 41.2983 22.1658 41.8568 20.8895C42.4152 19.6131 43.0633 17.9778 43.8012 15.9835C44.0206 15.3852 44.2798 14.9864 44.579 14.7869C44.898 14.5676 45.267 14.4579 45.6858 14.4579C46.2442 14.4579 46.663 14.5775 46.9422 14.8169C47.2214 15.0362 47.361 15.4151 47.361 15.9536V20.5903C47.361 22.5846 47.371 24.0205 47.3909 24.898C48.3083 23.3026 49.0561 21.9165 49.6345 20.7399C50.2328 19.5633 50.9009 17.9778 51.6387 15.9835C51.8581 15.3852 52.1473 14.9864 52.5063 14.7869C52.8652 14.5676 53.314 14.4579 53.8524 14.4579Z" fill="white"/>
<path d="M25.2695 28.5774C24.033 28.5774 23.0458 28.1287 22.3079 27.2313C21.57 26.3339 21.2011 25.1572 21.2011 23.7014C21.2011 22.106 21.57 20.6003 22.3079 19.1843C23.0458 17.7484 24.023 16.6017 25.2395 15.7442C26.476 14.8667 27.7823 14.4279 29.1583 14.4279C29.5971 14.4279 29.8862 14.5177 30.0258 14.6972C30.1854 14.8567 30.315 15.1559 30.4147 15.5946C30.8335 15.5148 31.2723 15.4749 31.731 15.4749C32.7082 15.4749 33.1968 15.8239 33.1968 16.5219C33.1968 16.9407 33.0472 17.9379 32.748 19.5134C32.2894 21.8068 32.06 23.4022 32.06 24.2997C32.06 24.5988 32.1298 24.8381 32.2694 25.0176C32.429 25.1971 32.6284 25.2869 32.8677 25.2869C33.2466 25.2869 33.7053 25.0475 34.2438 24.5689C34.7822 24.0703 35.5101 23.2726 36.4275 22.1758C36.6668 21.8966 36.9361 21.757 37.2352 21.757C37.4945 21.757 37.6939 21.8766 37.8335 22.1159C37.993 22.3552 38.0728 22.6843 38.0728 23.1031C38.0728 23.9008 37.8834 24.5191 37.5044 24.9578C36.6868 25.9749 35.8193 26.8324 34.9019 27.5304C33.9845 28.2284 33.097 28.5774 32.2395 28.5774C31.5814 28.5774 30.9731 28.3581 30.4147 27.9193C29.8763 27.4606 29.4674 26.8424 29.1882 26.0646C28.1512 27.7398 26.8449 28.5774 25.2695 28.5774ZM26.3464 25.5561C26.7851 25.5561 27.2039 25.2968 27.6028 24.7783C28.0016 24.2598 28.2908 23.5718 28.4703 22.7142L29.5771 17.21C28.7395 17.2299 27.9618 17.549 27.2438 18.1672C26.5458 18.7655 25.9874 19.5632 25.5686 20.5604C25.1498 21.5575 24.9404 22.6145 24.9404 23.7313C24.9404 24.3495 25.0601 24.8082 25.2994 25.1074C25.5586 25.4065 25.9076 25.5561 26.3464 25.5561Z" fill="white"/>
<path d="M23.2435 10.5989C23.2435 12.294 22.8047 13.8496 21.9272 15.2655C21.0497 16.6815 19.7734 17.8382 18.0982 18.7356C16.423 19.633 14.4287 20.1615 12.1153 20.3211L10.829 27.5304C10.3304 30.3025 8.97431 31.6885 6.76065 31.6885C5.54413 31.6885 4.41736 31.3295 3.38032 30.6116C2.36323 29.8937 1.54558 28.7968 0.927346 27.321C0.309115 25.8452 0 24.0304 0 21.8766C0 17.8282 0.648145 14.398 1.94443 11.5861C3.26067 8.75417 5.01564 6.64022 7.20936 5.24422C9.42303 3.82827 11.8561 3.1203 14.5085 3.1203C16.3831 3.1203 17.9686 3.44935 19.2649 4.10747C20.5811 4.76559 21.5683 5.66302 22.2264 6.79976C22.9044 7.91657 23.2435 9.18294 23.2435 10.5989ZM12.6538 17.2399C16.7421 16.7214 18.7862 14.5974 18.7862 10.8681C18.7862 9.55189 18.3475 8.48494 17.47 7.66728C16.6124 6.82968 15.2763 6.41088 13.4615 6.41088C11.4073 6.41088 9.61248 7.05902 8.07688 8.35531C6.56122 9.6516 5.38459 11.4564 4.54698 13.7698C3.72933 16.0632 3.3205 18.6857 3.3205 21.6373C3.3205 22.8738 3.44015 23.9706 3.67947 24.9279C3.93873 25.8851 4.25781 26.633 4.63673 27.1714C5.03559 27.69 5.4145 27.9492 5.77347 27.9492C6.27205 27.9492 6.65096 27.2612 6.91022 25.8851L7.89739 20.2313C7.11962 20.1117 6.78059 20.0618 6.88031 20.0817C6.28202 19.982 5.89313 19.8025 5.71364 19.5433C5.53416 19.2641 5.44442 18.9151 5.44442 18.4963C5.44442 18.0575 5.56407 17.7085 5.80339 17.4493C6.06265 17.19 6.41165 17.0604 6.85039 17.0604C7.04982 17.0604 7.19939 17.0704 7.29911 17.0903C7.77774 17.1701 8.14668 17.2199 8.40594 17.2399C8.6652 15.6843 9.03414 13.6003 9.51277 10.9878C9.63243 10.3097 9.90166 9.83109 10.3205 9.55188C10.7592 9.25274 11.2677 9.10317 11.8461 9.10317C12.5042 9.10317 12.9729 9.2328 13.2521 9.49206C13.5512 9.73137 13.7008 10.1203 13.7008 10.6587C13.7008 10.9778 13.6808 11.2371 13.641 11.4365L12.6538 17.2399Z" fill="white"/>
</svg>
